# xmcd
#
# Track frame offsets: 
#        150
#        13933
#        37698
#        58189
#        75190
#        92024
#        113818
#        135445
#        155992
#        170235
#
# Disc length: 2529 seconds
#
# Revision: 0
# Processed by: cddbd v1.5.2PL0 Copyright (c) Steve Scherf et al.
# Submitted via: ExactAudioCopy v1.3
#
DISCID=7909df0a
DTITLE=Fog Blues and Brass Band - Into the Fog
DYEAR=2018
DGENRE=Blues
TTITLE0=Automatic Blues
TTITLE1=Steady Rollin Man
TTITLE2=High Maintenance Love
TTITLE3=Would You Care
TTITLE4=C'mon Down By The River
TTITLE5=Into The Fog
TTITLE6=Ramblin
TTITLE7=In The Back Woods
TTITLE8=She's Alright
TTITLE9=One Of A Kind Things
EXTD=
EXTT0=
EXTT1=
EXTT2=
EXTT3=
EXTT4=
EXTT5=
EXTT6=
EXTT7=
EXTT8=
EXTT9=
PLAYORDER=
